<svg width="85" height="21" viewBox="0 0 85 21" fill="none" xmlns="http://www.w3.org/2000/svg">
<path d="M15.3077 18.6154L15.2308 20.3077H1.23077V1.38464H14.6923L14.7692 3.15387H3.15385V9.69234H13.1539V11.2308H3.15385V18.6154H15.3077Z" fill="#57AD56" stroke="#57AD56" stroke-width="0.25"/>
<path fill-rule="evenodd" clip-rule="evenodd" d="M26.9231 15.3846H38.077L40.2308 20.3077H42.3846L33.6923 1.38464H31.4615L22.6923 20.3077H24.7692L26.9231 15.3846ZM27.6154 13.7693L31.6923 4.61548L32.4615 2.69238H32.5385L33.3077 4.61548L37.3077 13.7693H27.6154Z" fill="#57AD56"/>
<path d="M38.077 15.3846L38.1915 15.3345L38.1587 15.2596H38.077V15.3846ZM26.9231 15.3846V15.2596H26.8413L26.8086 15.3345L26.9231 15.3846ZM40.2308 20.3077L40.1163 20.3578L40.149 20.4327H40.2308V20.3077ZM42.3846 20.3077V20.4327H42.5796L42.4982 20.2556L42.3846 20.3077ZM33.6923 1.38464L33.8059 1.33247L33.7725 1.25964H33.6923V1.38464ZM31.4615 1.38464V1.25964H31.3817L31.3481 1.33209L31.4615 1.38464ZM22.6923 20.3077L22.5789 20.2552L22.4966 20.4327H22.6923V20.3077ZM24.7692 20.3077V20.4327H24.851L24.8837 20.3578L24.7692 20.3077ZM31.6923 4.61548L31.8066 4.66637L31.8084 4.6619L31.6923 4.61548ZM27.6154 13.7693L27.5012 13.7184L27.4229 13.8943H27.6154V13.7693ZM32.4615 2.69238V2.56738H32.3769L32.3455 2.64596L32.4615 2.69238ZM32.5385 2.69238L32.6546 2.64596L32.6231 2.56738H32.5385V2.69238ZM33.3077 4.61548L33.1916 4.66192L33.1932 4.66553L33.3077 4.61548ZM37.3077 13.7693V13.8943H37.4988L37.4223 13.7192L37.3077 13.7693ZM38.077 15.2596H26.9231V15.5096H38.077V15.2596ZM40.3453 20.2576L38.1915 15.3345L37.9624 15.4347L40.1163 20.3578L40.3453 20.2576ZM42.3846 20.1827H40.2308V20.4327H42.3846V20.1827ZM33.5787 1.43682L42.2711 20.3599L42.4982 20.2556L33.8059 1.33247L33.5787 1.43682ZM31.4615 1.50964H33.6923V1.25964H31.4615V1.50964ZM22.8057 20.3603L31.575 1.4372L31.3481 1.33209L22.5789 20.2552L22.8057 20.3603ZM24.7692 20.1827H22.6923V20.4327H24.7692V20.1827ZM26.8086 15.3345L24.6547 20.2576L24.8837 20.3578L27.0376 15.4347L26.8086 15.3345ZM31.5781 4.56462L27.5012 13.7184L27.7296 13.8201L31.8065 4.66633L31.5781 4.56462ZM32.3455 2.64596L31.5763 4.56906L31.8084 4.6619L32.5776 2.73881L32.3455 2.64596ZM32.5385 2.56738H32.4615V2.81738H32.5385V2.56738ZM33.4238 4.56906L32.6546 2.64596L32.4225 2.73881L33.1917 4.6619L33.4238 4.56906ZM37.4223 13.7192L33.4223 4.56543L33.1932 4.66553L37.1932 13.8193L37.4223 13.7192ZM27.6154 13.8943H37.3077V13.6443H27.6154V13.8943Z" fill="#57AD56"/>
<path d="M56.2308 3.15387V20.3077H54.3077V3.15387H47.2308L47.3077 1.38464H63.3846V3.15387H56.2308Z" fill="#57AD56" stroke="#57AD56" stroke-width="0.25"/>
<path d="M77.0769 20.6923C74.4616 20.6923 72.3846 20.0769 70.6923 19.0769L71 17.3846C72.7692 18.3846 74.7692 19 77.1539 19C80.6923 19 82.5385 17.3846 82.5385 15.0769C82.5385 10.0769 71 12.6923 71 6.23077C71 3.46154 73.0769 1 77.9231 1C80.1539 1 82.1539 1.38462 83.7692 2.15385L83.4616 3.76923C81.6923 3.07692 80 2.69231 78 2.69231C74.2308 2.69231 72.8462 4.38462 72.8462 6.07692C72.8462 10.8462 84.3846 8.15385 84.3846 14.9231C84.3077 18.3077 81.8462 20.6923 77.0769 20.6923Z" fill="#57AD56" stroke="#57AD56" stroke-width="0.25"/>
</svg>
